REM DIRINDEX 1\6,1\2\7,1\2\8,1\2\9,1\3\10,1\3\11,1\4\12,1\4\13,1\4\14,1\5\15,1\5\16,1\5\17
REM DIRNAME cjc040,folder01,folder02,folder03,folder04,folder05,folder06,folder07,folder08,folder09,folder10,folder11,folder12,folder13,folder14,folder15,folder16
TITLE ""
FILE "P2Q_t2_0463-0480.mp3" MP3
  TRACK 01 AUDIO
    TITLE "7:cjc040_5218"
    INDEX 01 00:00:00
  TRACK 02 AUDIO
    TITLE "0:"
    INDEX 01 00:01:09
  TRACK 03 AUDIO
    TITLE "8:cjc040_5219"
    INDEX 01 00:01:64
  TRACK 04 AUDIO
    TITLE "0:"
    INDEX 01 00:03:25
  TRACK 05 AUDIO
    TITLE "9:cjc040_5220"
    INDEX 01 00:04:03
  TRACK 06 AUDIO
    TITLE "0:"
    INDEX 01 00:05:32
  TRACK 07 AUDIO
    TITLE "7:cjc040_5221"
    INDEX 01 00:07:13
  TRACK 08 AUDIO
    TITLE "0:"
    INDEX 01 00:08:11
  TRACK 09 AUDIO
    TITLE "8:cjc040_5222"
    INDEX 01 00:08:68
  TRACK 10 AUDIO
    TITLE "0:"
    INDEX 01 00:11:72
  TRACK 11 AUDIO
    TITLE "9:cjc040_5223"
    INDEX 01 00:12:44
  TRACK 12 AUDIO
    TITLE "0:"
    INDEX 01 00:13:49
  TRACK 13 AUDIO
    TITLE "7:cjc040_5224"
    INDEX 01 00:15:30
  TRACK 14 AUDIO
    TITLE "0:"
    INDEX 01 00:16:18
  TRACK 15 AUDIO
    TITLE "8:cjc040_5225"
    INDEX 01 00:17:14
  TRACK 16 AUDIO
    TITLE "0:"
    INDEX 01 00:20:32
  TRACK 17 AUDIO
    TITLE "9:cjc040_5226"
    INDEX 01 00:21:09
  TRACK 18 AUDIO
    TITLE "0:"
    INDEX 01 00:22:09
  TRACK 19 AUDIO
    TITLE "7:cjc040_5227"
    INDEX 01 00:23:71
  TRACK 20 AUDIO
    TITLE "0:"
    INDEX 01 00:25:11
  TRACK 21 AUDIO
    TITLE "8:cjc040_5228"
    INDEX 01 00:25:68
  TRACK 22 AUDIO
    TITLE "0:"
    INDEX 01 00:29:03
  TRACK 23 AUDIO
    TITLE "9:cjc040_5229"
    INDEX 01 00:29:52
  TRACK 24 AUDIO
    TITLE "0:"
    INDEX 01 00:30:63
  TRACK 25 AUDIO
    TITLE "7:cjc040_5230"
    INDEX 01 00:32:39
  TRACK 26 AUDIO
    TITLE "0:"
    INDEX 01 00:33:50
  TRACK 27 AUDIO
    TITLE "8:cjc040_5231"
    INDEX 01 00:34:30
  TRACK 28 AUDIO
    TITLE "0:"
    INDEX 01 00:36:01
  TRACK 29 AUDIO
    TITLE "9:cjc040_5232"
    INDEX 01 00:36:54
  TRACK 30 AUDIO
    TITLE "0:"
    INDEX 01 00:37:69
  TRACK 31 AUDIO
    TITLE "7:cjc040_5233"
    INDEX 01 00:39:51
  TRACK 32 AUDIO
    TITLE "0:"
    INDEX 01 00:41:14
  TRACK 33 AUDIO
    TITLE "8:cjc040_5234"
    INDEX 01 00:41:69
  TRACK 34 AUDIO
    TITLE "0:"
    INDEX 01 00:45:69
  TRACK 35 AUDIO
    TITLE "9:cjc040_5235"
    INDEX 01 00:46:51
  TRACK 36 AUDIO
    TITLE "0:"
    INDEX 01 00:48:12
  TRACK 37 AUDIO
    TITLE "7:cjc040_5236"
    INDEX 01 00:49:65
  TRACK 38 AUDIO
    TITLE "0:"
    INDEX 01 00:50:60
  TRACK 39 AUDIO
    TITLE "8:cjc040_5237"
    INDEX 01 00:51:46
  TRACK 40 AUDIO
    TITLE "0:"
    INDEX 01 00:54:21
  TRACK 41 AUDIO
    TITLE "9:cjc040_5238"
    INDEX 01 00:55:01
  TRACK 42 AUDIO
    TITLE "0:"
    INDEX 01 00:55:73
  TRACK 43 AUDIO
    TITLE "7:cjc040_5239"
    INDEX 01 00:57:58
  TRACK 44 AUDIO
    TITLE "0:"
    INDEX 01 00:58:66
  TRACK 45 AUDIO
    TITLE "8:cjc040_5240"
    INDEX 01 00:59:47
  TRACK 46 AUDIO
    TITLE "0:"
    INDEX 01 01:05:34
  TRACK 47 AUDIO
    TITLE "9:cjc040_5241"
    INDEX 01 01:06:10
  TRACK 48 AUDIO
    TITLE "0:"
    INDEX 01 01:07:17
  TRACK 49 AUDIO
    TITLE "7:cjc040_5242"
    INDEX 01 01:08:70
  TRACK 50 AUDIO
    TITLE "0:"
    INDEX 01 01:10:35
  TRACK 51 AUDIO
    TITLE "8:cjc040_5243"
    INDEX 01 01:11:09
  TRACK 52 AUDIO
    TITLE "0:"
    INDEX 01 01:12:52
  TRACK 53 AUDIO
    TITLE "9:cjc040_5244"
    INDEX 01 01:13:32
  TRACK 54 AUDIO
    TITLE "0:"
    INDEX 01 01:14:74
  TRACK 55 AUDIO
    TITLE "7:cjc040_5245"
    INDEX 01 01:16:54
  TRACK 56 AUDIO
    TITLE "0:"
    INDEX 01 01:17:67
  TRACK 57 AUDIO
    TITLE "8:cjc040_5246"
    INDEX 01 01:18:49
  TRACK 58 AUDIO
    TITLE "0:"
    INDEX 01 01:20:34
  TRACK 59 AUDIO
    TITLE "9:cjc040_5247"
    INDEX 01 01:21:14
  TRACK 60 AUDIO
    TITLE "0:"
    INDEX 01 01:22:29
  TRACK 61 AUDIO
    TITLE "7:cjc040_5248"
    INDEX 01 01:24:02
  TRACK 62 AUDIO
    TITLE "0:"
    INDEX 01 01:25:21
  TRACK 63 AUDIO
    TITLE "8:cjc040_5249"
    INDEX 01 01:25:70
  TRACK 64 AUDIO
    TITLE "0:"
    INDEX 01 01:27:34
  TRACK 65 AUDIO
    TITLE "9:cjc040_5250"
    INDEX 01 01:28:12
  TRACK 66 AUDIO
    TITLE "0:"
    INDEX 01 01:29:29
  TRACK 67 AUDIO
    TITLE "7:cjc040_5251"
    INDEX 01 01:31:06
  TRACK 68 AUDIO
    TITLE "0:"
    INDEX 01 01:32:53
  TRACK 69 AUDIO
    TITLE "8:cjc040_5252"
    INDEX 01 01:33:29
  TRACK 70 AUDIO
    TITLE "0:"
    INDEX 01 01:34:38
  TRACK 71 AUDIO
    TITLE "9:cjc040_5253"
    INDEX 01 01:35:12
  TRACK 72 AUDIO
    TITLE "0:"
    INDEX 01 01:36:66
  TRACK 73 AUDIO
    TITLE "7:cjc040_5254"
    INDEX 01 01:38:43
  TRACK 74 AUDIO
    TITLE "0:"
    INDEX 01 01:39:57
  TRACK 75 AUDIO
    TITLE "8:cjc040_5255"
    INDEX 01 01:40:36
  TRACK 76 AUDIO
    TITLE "0:"
    INDEX 01 01:43:13
  TRACK 77 AUDIO
    TITLE "9:cjc040_5256"
    INDEX 01 01:43:68
  TRACK 78 AUDIO
    TITLE "0:"
    INDEX 01 01:45:12
  TRACK 79 AUDIO
    TITLE "7:cjc040_5257"
    INDEX 01 01:46:63
  TRACK 80 AUDIO
    TITLE "0:"
    INDEX 01 01:48:03
  TRACK 81 AUDIO
    TITLE "8:cjc040_5258"
    INDEX 01 01:48:54
  TRACK 82 AUDIO
    TITLE "0:"
    INDEX 01 01:50:25
  TRACK 83 AUDIO
    TITLE "9:cjc040_5259"
    INDEX 01 01:50:74
  TRACK 84 AUDIO
    TITLE "0:"
    INDEX 01 01:52:16
  TRACK 85 AUDIO
    TITLE "7:cjc040_5260"
    INDEX 01 01:53:72
  TRACK 86 AUDIO
    TITLE "0:"
    INDEX 01 01:55:13
  TRACK 87 AUDIO
    TITLE "8:cjc040_5261"
    INDEX 01 01:55:65
  TRACK 88 AUDIO
    TITLE "0:"
    INDEX 01 01:58:48
  TRACK 89 AUDIO
    TITLE "9:cjc040_5262"
    INDEX 01 01:59:28
  TRACK 90 AUDIO
    TITLE "0:"
    INDEX 01 02:00:49
  TRACK 91 AUDIO
    TITLE "7:cjc040_5263"
    INDEX 01 02:02:34
  TRACK 92 AUDIO
    TITLE "0:"
    INDEX 01 02:03:43
  TRACK 93 AUDIO
    TITLE "8:cjc040_5264"
    INDEX 01 02:04:23
  TRACK 94 AUDIO
    TITLE "0:"
    INDEX 01 02:10:67
  TRACK 95 AUDIO
    TITLE "9:cjc040_5265"
    INDEX 01 02:11:45
  TRACK 96 AUDIO
    TITLE "0:"
    INDEX 01 02:12:56
  TRACK 97 AUDIO
    TITLE "7:cjc040_5266"
    INDEX 01 02:14:39
  TRACK 98 AUDIO
    TITLE "0:"
    INDEX 01 02:15:56
  TRACK 99 AUDIO
    TITLE "8:cjc040_5267"
    INDEX 01 02:16:36
  TRACK 100 AUDIO
    TITLE "0:"
    INDEX 01 02:18:27
  TRACK 101 AUDIO
    TITLE "9:cjc040_5268"
    INDEX 01 02:19:05
  TRACK 102 AUDIO
    TITLE "0:"
    INDEX 01 02:20:26
  TRACK 103 AUDIO
    TITLE "7:cjc040_5269"
    INDEX 01 02:22:07
  TRACK 104 AUDIO
    TITLE "0:"
    INDEX 01 02:23:21
  TRACK 105 AUDIO
    TITLE "8:cjc040_5270"
    INDEX 01 02:24:06
  TRACK 106 AUDIO
    TITLE "0:"
    INDEX 01 02:25:08
  TRACK 107 AUDIO
    TITLE "9:cjc040_5271"
    INDEX 01 02:25:61
  TRACK 108 AUDIO
    TITLE "0:"
    INDEX 01 02:26:74
